<?xml version="1.0" encoding="UTF-8"?>
<svg version="1.1" xmlns="http://www.w3.org/2000/svg" width="180" height="180">
<path d="M0 0 C59.4 0 118.8 0 180 0 C180 59.4 180 118.8 180 180 C120.6 180 61.2 180 0 180 C0 120.6 0 61.2 0 0 Z " fill="#FCFDFD" transform="translate(0,0)"/>
<path d="M0 0 C7.92 0 15.84 0 24 0 C24 3.3 24 6.6 24 10 C24.99 9.67 25.98 9.34 27 9 C27.66 9.33 28.32 9.66 29 10 C29 10.66 29 11.32 29 12 C30.216875 11.896875 31.43375 11.79375 32.6875 11.6875 C36.45005227 11.65408479 36.88803642 11.90669702 40 14.5 C40.66 15.325 41.32 16.15 42 17 C42.28875 16.175 42.5775 15.35 42.875 14.5 C45 12 45 12 47.42578125 11.66796875 C49.9661018 11.68593424 52.46898139 11.78631175 55 12 C54.59007812 12.67546875 54.18015625 13.3509375 53.7578125 14.046875 C53.21898437 14.93890625 52.68015625 15.8309375 52.125 16.75 C51.59132812 17.63171875 51.05765625 18.5134375 50.5078125 19.421875 C49.24403334 21.58274093 48.08501165 23.74570395 47 26 C47.5775 26.77085938 48.155 27.54171875 48.75 28.3359375 C49.4925 29.33882812 50.235 30.34171875 51 31.375 C52.11375 32.87160156 52.11375 32.87160156 53.25 34.3984375 C55 37 55 37 55 39 C51.9471466 39.2935436 49.04249867 39.44139877 46 39 C43.5625 36.5625 43.5625 36.5625 42 34 C41.01 33.505 41.01 33.505 40 33 C38.79371992 35.33214148 37.8345262 37.49642139 37 40 C28.69968921 41.00951148 20.65279137 40.96922616 12.3125 40.5625 C8.249375 40.376875 4.18625 40.19125 0 40 C0 26.8 0 13.6 0 0 Z " fill="#F2F2F3" transform="translate(61,67)"/>
<path d="M0 0 C2.21337891 0.04541016 2.21337891 0.04541016 4.3125 0.625 C5.76708984 2.15380859 5.76708984 2.15380859 7.0859375 4.2734375 C7.59503662 5.09086426 8.10413574 5.90829102 8.62866211 6.75048828 C11.57957903 11.78805473 14.45540665 16.85520405 17.22875977 21.9921875 C18.25974837 23.89297261 19.31037971 25.78206935 20.36132812 27.671875 C21.02206709 28.88995657 21.68161692 30.10868409 22.33984375 31.328125 C22.93531006 32.41770508 23.53077637 33.50728516 24.14428711 34.62988281 C25.42940571 37.92472816 25.50755139 39.33599979 24.3125 42.625 C23.6525 43.285 22.9925 43.945 22.3125 44.625 C20.9925 44.625 19.6725 44.625 18.3125 44.625 C16.83618164 42.90014648 16.83618164 42.90014648 15.47265625 40.49609375 C14.96669922 39.62533203 14.46074219 38.75457031 13.93945312 37.85742188 C13.42318359 36.93509766 12.90691406 36.01277344 12.375 35.0625 C11.34786397 33.26791893 10.31795771 31.4749203 9.28515625 29.68359375 C8.79031738 28.8210498 8.29547852 27.95850586 7.78564453 27.06982422 C6.43037136 24.82061879 4.98932426 22.71123588 3.43359375 20.59765625 C1.3125 17.625 1.3125 17.625 1.3125 15.625 C-1.76472397 18.49052306 -3.92447823 21.36723298 -6.0703125 24.9765625 C-6.98490234 26.50023437 -6.98490234 26.50023437 -7.91796875 28.0546875 C-8.54316406 29.10914062 -9.16835937 30.16359375 -9.8125 31.25 C-11.06256523 33.34786914 -12.31505255 35.44429749 -13.5703125 37.5390625 C-14.39619873 38.9305249 -14.39619873 38.9305249 -15.23876953 40.35009766 C-16.6875 42.625 -16.6875 42.625 -18.6875 44.625 C-21.62203261 44.25818342 -22.55187246 43.76062754 -24.6875 41.625 C-24.54710706 35.64426086 -21.39244562 30.69980676 -18.625 25.5625 C-17.88660889 24.17272949 -17.88660889 24.17272949 -17.13330078 22.75488281 C-5.4252021 0.91952578 -5.4252021 0.91952578 0 0 Z " fill="#05041E" transform="translate(24.6875,64.375)"/>
<path d="M0 0 C2.64 0 5.28 0 8 0 C8.33 0.66 8.66 1.32 9 2 C9.99 1.34 10.98 0.68 12 0 C16.18614674 -0.60362041 19.93436214 -0.41698873 23.875 1.125 C27.14487018 4.01017957 28.67161236 6.80140471 29.3203125 11.14453125 C29.61567109 16.92371425 28.436407 20.35620675 25 25 C22.01428067 27.50154863 20.33105751 27.96515184 16.4375 28.375 C13 28 13 28 9 25 C8.67 28.63 8.34 32.26 8 36 C5.36 36 2.72 36 0 36 C0 24.12 0 12.24 0 0 Z " fill="#06061A" transform="translate(120,79)"/>
<path d="M0 0 C7.92 0 15.84 0 24 0 C24 2.64 24 5.28 24 8 C19.05 8 14.1 8 9 8 C9 10.31 9 12.62 9 15 C13.62 15 18.24 15 23 15 C23 17.64 23 20.28 23 23 C18.38 23 13.76 23 9 23 C9 25.64 9 28.28 9 31 C13.95 31 18.9 31 24 31 C24 33.97 24 36.94 24 40 C16.08 40 8.16 40 0 40 C0 26.8 0 13.6 0 0 Z " fill="#262535" transform="translate(61,67)"/>
<path d="M0 0 C4.61803133 1.76860774 6.83605984 4.59197375 9 9 C9.80304396 13.98860642 9.53454205 17.8240075 7.4375 22.4375 C3.59388757 26.47822076 -0.0864344 27.76500072 -5.5625 28.4375 C-10.5564184 27.80191039 -13.5232174 25.68047675 -16.8125 21.9375 C-19.29203332 17.89194564 -19.77089655 13.62537928 -19 9 C-14.68576541 0.43815992 -9.14108686 -0.84565121 0 0 Z " fill="#06051F" transform="translate(171,79)"/>
<path d="M0 0 C8.03501094 -0.78774617 8.03501094 -0.78774617 12.0625 2.5 C12.701875 3.325 13.34125 4.15 14 5 C14.433125 3.7625 14.433125 3.7625 14.875 2.5 C17 0 17 0 19.42578125 -0.33203125 C21.9661018 -0.31406576 24.46898139 -0.21368825 27 0 C26.59007813 0.67546875 26.18015625 1.3509375 25.7578125 2.046875 C25.21898438 2.93890625 24.68015625 3.8309375 24.125 4.75 C23.59132813 5.63171875 23.05765625 6.5134375 22.5078125 7.421875 C21.24403334 9.58274093 20.08501165 11.74570395 19 14 C19.86625 15.15628906 19.86625 15.15628906 20.75 16.3359375 C21.4925 17.33882812 22.235 18.34171875 23 19.375 C24.11375 20.87160156 24.11375 20.87160156 25.25 22.3984375 C27 25 27 25 27 27 C23.9471466 27.2935436 21.04249867 27.44139877 18 27 C15.5625 24.5625 15.5625 24.5625 14 22 C13.34 21.67 12.68 21.34 12 21 C11.690625 21.61875 11.38125 22.2375 11.0625 22.875 C10.375 24.25 9.6875 25.625 9 27 C5.7 27 2.4 27 -1 27 C-0.50628906 26.25234375 -0.01257813 25.5046875 0.49609375 24.734375 C1.13675781 23.74953125 1.77742188 22.7646875 2.4375 21.75 C3.07558594 20.77546875 3.71367188 19.8009375 4.37109375 18.796875 C6.35552445 15.58003108 6.35552445 15.58003108 7 12 C5.5864443 9.39750024 5.5864443 9.39750024 3.5625 6.875 C0 2.17612524 0 2.17612524 0 0 Z " fill="#0A0920" transform="translate(89,79)"/>
<path d="M0 0 C0.33 0 0.66 0 1 0 C1 1.98 1 3.96 1 6 C5.62 6 10.24 6 15 6 C15 8.64 15 11.28 15 14 C10.38 14 5.76 14 1 14 C1 16.64 1 19.28 1 22 C5.95 22 10.9 22 16 22 C16 23.98 16 25.96 16 28 C12.26519624 28.85976146 8.76802846 29.1632868 4.9375 29.1875 C3.91527344 29.20167969 2.89304687 29.21585938 1.83984375 29.23046875 C-1.01065415 28.99913536 -2.62792213 28.56129837 -5 27 C-6.18297571 24.63404857 -6.10136311 23.19223681 -6.0625 20.5625 C-6.05347656 19.78003906 -6.04445312 18.99757813 -6.03515625 18.19140625 C-6.02355469 17.46824219 -6.01195312 16.74507812 -6 16 C-6 15.01 -6 14.02 -6 13 C-6 12.01 -6 11.02 -6 10 C-5.34 10 -4.68 10 -4 10 C-4 9.01 -4 8.02 -4 7 C-3.34 7 -2.68 7 -2 7 C-1.22227595 4.66682784 -0.57584432 2.38564077 0 0 Z " fill="#030218" transform="translate(69,76)"/>
<path d="M0 0 C2.64 0 5.28 0 8 0 C8 0.99 8 1.98 8 3 C9.32 3.66 10.64 4.32 12 5 C10.125 9.875 10.125 9.875 9 11 C9.37943488 15.09789669 9.69305957 17.53958935 12 21 C11.27876953 21.55107422 11.27876953 21.55107422 10.54296875 22.11328125 C8.38795083 24.74840443 8.49327654 26.82505636 8.3125 30.1875 C8.24675781 31.27417969 8.18101562 32.36085937 8.11328125 33.48046875 C8.07589844 34.31191406 8.03851563 35.14335938 8 36 C5.36 36 2.72 36 0 36 C0 24.12 0 12.24 0 0 Z " fill="#06071D" transform="translate(120,79)"/>
<path d="M0 0 C1.49080078 0.02707031 1.49080078 0.02707031 3.01171875 0.0546875 C3.77097656 0.07789062 4.53023437 0.10109375 5.3125 0.125 C5.3125 1.115 5.3125 2.105 5.3125 3.125 C3.9925 3.125 2.6725 3.125 1.3125 3.125 C1.6425 4.445 1.9725 5.765 2.3125 7.125 C1.343125 7.434375 0.37375 7.74375 -0.625 8.0625 C-3.52815792 8.82023342 -3.52815792 8.82023342 -4.6875 10.125 C-4.75929964 11.64428038 -4.77142007 13.16667482 -4.75 14.6875 C-4.74097656 15.51378906 -4.73195312 16.34007813 -4.72265625 17.19140625 C-4.71105469 17.82949219 -4.69945312 18.46757813 -4.6875 19.125 C-3.97722656 19.17398438 -3.26695312 19.22296875 -2.53515625 19.2734375 C-1.61605469 19.34820312 -0.69695312 19.42296875 0.25 19.5 C1.16652344 19.56960937 2.08304688 19.63921875 3.02734375 19.7109375 C3.78144531 19.84757812 4.53554687 19.98421875 5.3125 20.125 C5.6425 20.785 5.9725 21.445 6.3125 22.125 C5.6525 22.125 4.9925 22.125 4.3125 22.125 C4.6425 23.775 4.9725 25.425 5.3125 27.125 C2.20296621 28.6797669 -0.25016761 28.41144437 -3.6875 28.125 C-8.77393801 25.38614877 -11.85754027 22.6148792 -13.6875 17.125 C-14.27920258 11.20797418 -13.71630022 8.27330058 -10.07421875 3.5703125 C-6.80595839 0.16395663 -4.516389 -0.10626798 0 0 Z " fill="#09081E" transform="translate(165.6875,78.875)"/>
<path d="M0 0 C0.6084375 0.17402344 1.216875 0.34804687 1.84375 0.52734375 C4.51000568 1.11179472 6.35453495 0.59522964 9 0 C10.32 0 11.64 0 13 0 C14.87742101 3.38346928 16.72266434 6.78346788 18.5625 10.1875 C19.09552734 11.14720703 19.62855469 12.10691406 20.17773438 13.09570312 C20.67724609 14.02705078 21.17675781 14.95839844 21.69140625 15.91796875 C22.39052124 17.19837036 22.39052124 17.19837036 23.10375977 18.50463867 C24.17583985 21.48958298 23.99486314 23.01604205 23 26 C22.34 26.66 21.68 27.32 21 28 C19.68 28 18.36 28 17 28 C15.52368164 26.29101562 15.52368164 26.29101562 14.16015625 23.90625 C13.4012207 22.606875 13.4012207 22.606875 12.62695312 21.28125 C12.11068359 20.3634375 11.59441406 19.445625 11.0625 18.5 C10.03315932 16.71839902 9.00321818 14.93714483 7.97265625 13.15625 C7.47781738 12.29128906 6.98297852 11.42632812 6.47314453 10.53515625 C4.40011932 6.96765645 2.21005688 3.48399391 0 0 Z " fill="#0D0D24" transform="translate(26,81)"/>
<path d="M0 0 C3.3 0.66 6.6 1.32 10 2 C10 2.33 10 2.66 10 3 C8.02 3.33 6.04 3.66 4 4 C3.98541748 4.68102783 3.97083496 5.36205566 3.95581055 6.0637207 C3.88137304 9.14722215 3.78469917 12.22963567 3.6875 15.3125 C3.65366211 16.9202832 3.65366211 16.9202832 3.61914062 18.56054688 C3.58369141 19.58857422 3.54824219 20.61660156 3.51171875 21.67578125 C3.48553467 22.62364502 3.45935059 23.57150879 3.43237305 24.5480957 C2.93799755 27.35160394 2.19344374 28.25596964 0 30 C-3.68646141 28.54144353 -5.16143971 26.69770955 -7.25 23.375 C-7.77078125 22.55773437 -8.2915625 21.74046875 -8.828125 20.8984375 C-9.21484375 20.27195312 -9.6015625 19.64546875 -10 19 C-7.94145286 14.61394981 -5.22419064 10.69066691 -2.55859375 6.65625 C-0.77672313 3.90527836 -0.77672313 3.90527836 0 0 Z " fill="#F6F6F7" transform="translate(117,74)"/>
<path d="M0 0 C3.375 0.875 3.375 0.875 5.375 2.875 C5.92087156 8.87958716 5.92087156 8.87958716 4.3125 11.8125 C1.22006242 13.50835287 -1.18014741 13.30560657 -4.625 12.875 C-7.00960953 10.79808202 -7.5209746 9.46943084 -8.0625 6.375 C-7.625 3.875 -7.625 3.875 -6.0625 1.5 C-3.625 -0.125 -3.625 -0.125 0 0 Z " fill="#F2F2F4" transform="translate(135.625,86.125)"/>
<path d="M0 0 C0.66 0.99 1.32 1.98 2 3 C4.05003955 4.19232613 4.05003955 4.19232613 6 5 C5.01 6.485 5.01 6.485 4 8 C3.67 7.67 3.34 7.34 3 7 C3 7.99 3 8.98 3 10 C3.66 10.66 4.32 11.32 5 12 C1.76197367 14.52724006 -0.47103755 15.91647961 -4.5625 16.5625 C-8.85251444 15.86049764 -10.28059718 14.29624584 -13 11 C-10.40250066 8.71420058 -8.82723073 7.96127585 -5.375 7.1875 C-4.26125 6.795625 -3.1475 6.40375 -2 6 C-0.46853622 2.99405579 -0.46853622 2.99405579 0 0 Z " fill="#0C0B20" transform="translate(141,91)"/>
<path d="M0 0 C2 2 2 2 2.3125 5.4375 C2 9 2 9 0.875 10.9375 C-1.88980433 12.50422245 -3.88188517 12.38976435 -7 12 C-8.875 10.9375 -8.875 10.9375 -10 9 C-10.36841966 5.56141649 -10.58367385 3.09868019 -8.9375 0 C-5.80557344 -1.61647822 -3.32814714 -0.78665296 0 0 Z " fill="#F1F2F5" transform="translate(170,87)"/>
<path d="M0 0 C0.99 0.33 1.98 0.66 3 1 C3 1.66 3 2.32 3 3 C3.680625 2.2575 3.680625 2.2575 4.375 1.5 C6 0 6 0 8 0 C6.125 4.75 6.125 4.75 5 7 C4.76666713 13.08516056 4.76666713 13.08516056 6 19 C4.68 19.33 3.36 19.66 2 20 C2 20.66 2 21.32 2 22 C0.68 22.33 -0.64 22.66 -2 23 C-1.42415568 20.61435923 -0.77772405 18.33317216 0 16 C0.4413121 10.61188711 0.07424894 6.05598179 -2 1 C-1.34 0.67 -0.68 0.34 0 0 Z " fill="#F1F1F4" transform="translate(148,81)"/>
<path d="M0 0 C6.27 0 12.54 0 19 0 C19.33 0.99 19.66 1.98 20 3 C19.67 3.66 19.34 4.32 19 5 C9.595 5.495 9.595 5.495 0 6 C0 4.02 0 2.04 0 0 Z " fill="#05021E" transform="translate(64,69)"/>
<path d="M0 0 C2 3 2 3 1.625 5.6875 C1.41875 6.450625 1.2125 7.21375 1 8 C1.66 8 2.32 8 3 8 C3 8.99 3 9.98 3 11 C3.66 11.33 4.32 11.66 5 12 C3.68 13.65 2.36 15.3 1 17 C-1.86724686 16.42655063 -2.8614515 16.1385485 -5 14 C-4.74782064 8.70423336 -2.48703477 4.55763582 0 0 Z " fill="#08071B" transform="translate(5,92)"/>
<path d="M0 0 C4.62 0 9.24 0 14 0 C14 1.65 14 3.3 14 5 C10.16275828 5.90413673 6.62497726 6.10576898 2.6875 6.0625 C1.61886719 6.05347656 0.55023438 6.04445313 -0.55078125 6.03515625 C-1.35902344 6.02355469 -2.16726562 6.01195313 -3 6 C-2.34 5.34 -1.68 4.68 -1 4 C-0.67 2.68 -0.34 1.36 0 0 Z " fill="#040219" transform="translate(71,99)"/>
<path d="M0 0 C0.99 0 1.98 0 3 0 C3.66 1.32 4.32 2.64 5 4 C5.66 3.01 6.32 2.02 7 1 C7.86646667 2.43011973 8.71781829 3.86940619 9.5625 5.3125 C10.03816406 6.11300781 10.51382813 6.91351563 11.00390625 7.73828125 C12 10 12 10 11 13 C9.68 12.34 8.36 11.68 7 11 C7 10.01 7 9.02 7 8 C6.34 8 5.68 8 5 8 C4.67 9.65 4.34 11.3 4 13 C3.34 12.67 2.68 12.34 2 12 C2 9.69 2 7.38 2 5 C1.34 5 0.68 5 0 5 C0 3.35 0 1.7 0 0 Z " fill="#06051E" transform="translate(34,85)"/>
<path d="M0 0 C0.66 0 1.32 0 2 0 C2.66 1.32 3.32 2.64 4 4 C3.360625 4.268125 2.72125 4.53625 2.0625 4.8125 C-0.33131686 5.88667752 -0.33131686 5.88667752 -1 9 C-0.34 9 0.32 9 1 9 C1 9.66 1 10.32 1 11 C0.01 11.33 -0.98 11.66 -2 12 C-2.61875 12.639375 -3.2375 13.27875 -3.875 13.9375 C-6.16907177 16.16409907 -8.03537526 16.90905723 -11 18 C-9.73252511 15.74804937 -8.46117132 13.49844253 -7.1875 11.25 C-6.83107422 10.61578125 -6.47464844 9.9815625 -6.10742188 9.328125 C-2.28128342 2.58850497 -2.28128342 2.58850497 0 0 Z " fill="#E9E8EA" transform="translate(24,80)"/>
<path d="M0 0 C0.33 0.66 0.66 1.32 1 2 C2.32 1.67 3.64 1.34 5 1 C4.67 2.65 4.34 4.3 4 6 C3.34 6 2.68 6 2 6 C2.33 8.31 2.66 10.62 3 13 C1.68 12.01 0.36 11.02 -1 10 C-1.33 10.66 -1.66 11.32 -2 12 C-2.98020375 13.0194119 -3.97803008 14.02246356 -5 15 C-5.60709557 8.07911053 -4.44071801 5.32886161 0 0 Z M0 2 C1 4 1 4 1 4 Z " fill="#0E0D24" transform="translate(157,81)"/>
<path d="M0 0 C0.33 0 0.66 0 1 0 C1 2.64 1 5.28 1 8 C5.95 8 10.9 8 16 8 C16 8.33 16 8.66 16 9 C11.38 9 6.76 9 2 9 C2 10.65 2 12.3 2 14 C-0.31 14 -2.62 14 -5 14 C-5.6875 12.25 -5.6875 12.25 -6 10 C-4.6875 7.75 -4.6875 7.75 -3 6 C-2.34 6 -1.68 6 -1 6 C-0.67 4.02 -0.34 2.04 0 0 Z " fill="#212037" transform="translate(69,90)"/>
<path d="M0 0 C0.33 0 0.66 0 1 0 C1 1.98 1 3.96 1 6 C5.62 6 10.24 6 15 6 C15 8.64 15 11.28 15 14 C14.67 14 14.34 14 14 14 C14 11.69 14 9.38 14 7 C9.71 7 5.42 7 1 7 C1 7.66 1 8.32 1 9 C0.34 9 -0.32 9 -1 9 C-1 10.98 -1 12.96 -1 15 C-2.32 14.67 -3.64 14.34 -5 14 C-5.33 12.68 -5.66 11.36 -6 10 C-5.34 10 -4.68 10 -4 10 C-4 9.01 -4 8.02 -4 7 C-3.34 7 -2.68 7 -2 7 C-1.22227595 4.66682784 -0.57584432 2.38564077 0 0 Z " fill="#27253A" transform="translate(69,76)"/>
<path d="M0 0 C0.66 0.99 1.32 1.98 2 3 C4.05003955 4.19232613 4.05003955 4.19232613 6 5 C5.01 6.485 5.01 6.485 4 8 C3.67 7.67 3.34 7.34 3 7 C3 7.99 3 8.98 3 10 C3.66 10.66 4.32 11.32 5 12 C3.02 12.99 3.02 12.99 1 14 C-0.65 12.35 -2.3 10.7 -4 9 C-3.525625 8.443125 -3.05125 7.88625 -2.5625 7.3125 C-0.87604004 4.81653926 -0.41046893 2.9553763 0 0 Z " fill="#100E2B" transform="translate(141,91)"/>
<path d="M0 0 C1.65 0.33 3.3 0.66 5 1 C5.33 1.99 5.66 2.98 6 4 C6.66 3.67 7.32 3.34 8 3 C8.33 3.99 8.66 4.98 9 6 C8.01 6.495 8.01 6.495 7 7 C4.375 6.0625 4.375 6.0625 2 5 C-0.97 7.475 -0.97 7.475 -4 10 C-4.66 9.67 -5.32 9.34 -6 9 C-4.02 6.03 -2.04 3.06 0 0 Z " fill="#090A21" transform="translate(21,65)"/>
<path d="M0 0 C2.47512452 2.90558095 3.80697424 5.13948478 4 9 C2.8125 11.3125 2.8125 11.3125 1 13 C-0.32 13 -1.64 13 -3 13 C-5 10 -5 10 -5 7 C-2.69 7.66 -0.38 8.32 2 9 C1.34 8.67 0.68 8.34 0 8 C-1.27536232 2.55072464 -1.27536232 2.55072464 0 0 Z " fill="#0F101F" transform="translate(46,96)"/>
<path d="M0 0 C2 3 2 3 2 7 C3.42621684 9.71126384 3.42621684 9.71126384 5 12 C3.1875 13.5625 3.1875 13.5625 1 15 C0.01 14.67 -0.98 14.34 -2 14 C-1.690625 12.824375 -1.690625 12.824375 -1.375 11.625 C-1.25125 10.75875 -1.1275 9.8925 -1 9 C-1.66 8.34 -2.32 7.68 -3 7 C-2.34 7 -1.68 7 -1 7 C-0.67 4.69 -0.34 2.38 0 0 Z " fill="#19192F" transform="translate(172,91)"/>
<path d="M0 0 C2.88575819 0.39803561 3.82189513 0.79009069 5.75 3.0625 C6.36875 4.0215625 6.36875 4.0215625 7 5 C5.33333333 5 3.66666667 5 2 5 C1.67 6.32 1.34 7.64 1 9 C-0.9375 8.3125 -0.9375 8.3125 -3 7 C-3.75 4.375 -3.75 4.375 -4 2 C-2.68 2 -1.36 2 0 2 C0 1.34 0 0.68 0 0 Z " fill="#0E0E24" transform="translate(171,80)"/>
<path d="M0 0 C2.86724686 0.57344937 3.8614515 0.8614515 6 3 C5.61121812 6.01305957 4.73543126 7.39685311 3 10 C2.34 10 1.68 10 1 10 C1 8.68 1 7.36 1 6 C-0.92022703 4.22590192 -0.92022703 4.22590192 -3 3 C-2.34 3 -1.68 3 -1 3 C-0.67 2.01 -0.34 1.02 0 0 Z " fill="#050419" transform="translate(104,83)"/>
<path d="M0 0 C0.99 0.99 1.98 1.98 3 3 C3.66 2.34 4.32 1.68 5 1 C5.33 1.99 5.66 2.98 6 4 C5.01 5.485 5.01 5.485 4 7 C6.97 7.33 9.94 7.66 13 8 C13 8.33 13 8.66 13 9 C11.20909747 9.19466332 9.41723495 9.38051213 7.625 9.5625 C6.12839844 9.71912109 6.12839844 9.71912109 4.6015625 9.87890625 C2 10 2 10 0 9 C0 6.03 0 3.06 0 0 Z " fill="#D1D1D7" transform="translate(85,98)"/>
<path d="M0 0 C2 3 2 3 1.625 5.6875 C1.41875 6.450625 1.2125 7.21375 1 8 C1.66 8 2.32 8 3 8 C3 8.99 3 9.98 3 11 C3.66 11.33 4.32 11.66 5 12 C3.68 11.67 2.36 11.34 1 11 C1 10.34 1 9.68 1 9 C-1.15811388 9.94729537 -1.15811388 9.94729537 -3 12 C-3.66 11.34 -4.32 10.68 -5 10 C-3.35 6.7 -1.7 3.4 0 0 Z " fill="#141227" transform="translate(5,92)"/>
<path d="M0 0 C1.33897583 0.95043374 2.67105427 1.91059147 4 2.875 C5.11375 3.67550781 5.11375 3.67550781 6.25 4.4921875 C6.8275 4.98976563 7.405 5.48734375 8 6 C8 6.66 8 7.32 8 8 C5.36 8 2.72 8 0 8 C0 5.36 0 2.72 0 0 Z " fill="#070616" transform="translate(108,98)"/>
<path d="M0 0 C0.99 0.495 0.99 0.495 2 1 C2 1.66 2 2.32 2 3 C2.99 3.33 3.98 3.66 5 4 C3.02 8.455 3.02 8.455 1 13 C0.67 13 0.34 13 0 13 C0 8.71 0 4.42 0 0 Z " fill="#F3F2F4" transform="translate(0,89)"/>
<path d="M0 0 C0.66 0.33 1.32 0.66 2 1 C3.70702735 1.06996014 5.41668003 1.08440154 7.125 1.0625 C8.03507812 1.05347656 8.94515625 1.04445313 9.8828125 1.03515625 C10.93082031 1.01775391 10.93082031 1.01775391 12 1 C12 1.66 12 2.32 12 3 C9.36 3 6.72 3 4 3 C3.67 4.32 3.34 5.64 3 7 C2.01 7 1.02 7 0 7 C-0.38133299 5.0085944 -0.71325582 3.00720923 -1 1 C-0.67 0.67 -0.34 0.34 0 0 Z " fill="#CECDD0" transform="translate(105,104)"/>
<path d="M0 0 C-0.99 0.495 -0.99 0.495 -2 1 C-1.67 2.65 -1.34 4.3 -1 6 C-2.98 6.33 -4.96 6.66 -7 7 C-6.34 5.68 -5.68 4.36 -5 3 C-5.99 2.01 -6.98 1.02 -8 0 C-4.71303767 -0.79953138 -3.28976808 -1.09658936 0 0 Z " fill="#020216" transform="translate(172,100)"/>
<path d="M0 0 C0.66 0.33 1.32 0.66 2 1 C1.45276317 4.37462715 0.9451 6.08235 -1 9 C-1.66 9 -2.32 9 -3 9 C-3 8.01 -3 7.02 -3 6 C-3.66 6 -4.32 6 -5 6 C-3.74821404 3.49642808 -2.00018842 1.93566621 0 0 Z " fill="#0B0A20" transform="translate(11,94)"/>
<path d="M0 0 C0.33 0.66 0.66 1.32 1 2 C1.99 2.33 2.98 2.66 4 3 C4 3.66 4 4.32 4 5 C5.32 4.67 6.64 4.34 8 4 C7.67 4.99 7.34 5.98 7 7 C6.34 6.67 5.68 6.34 5 6 C4.67 6.66 4.34 7.32 4 8 C3.01 7.34 2.02 6.68 1 6 C1 5.34 1 4.68 1 4 C-0.32 4.33 -1.64 4.66 -3 5 C-2.01 3.35 -1.02 1.7 0 0 Z " fill="#13132B" transform="translate(96,94)"/>
<path d="M0 0 C0.99 0.33 1.98 0.66 3 1 C3.6875 3.0625 3.6875 3.0625 4 5 C3.360625 5.12375 2.72125 5.2475 2.0625 5.375 C1.0415625 5.684375 1.0415625 5.684375 0 6 C-0.33 6.66 -0.66 7.32 -1 8 C-1.66 7.67 -2.32 7.34 -3 7 C-3.1875 4.625 -3.1875 4.625 -3 2 C-2.01 1.34 -1.02 0.68 0 0 Z " fill="#02011A" transform="translate(156,91)"/>
<path d="M0 0 C0.66 1.32 1.32 2.64 2 4 C-2 10.57142857 -2 10.57142857 -6 12 C-4.43358249 7.69235185 -2.31663844 3.93828536 0 0 Z " fill="#131324" transform="translate(13,78)"/>
<path d="M0 0 C-0.1875 2.3125 -0.1875 2.3125 -1 5 C-3.4375 6.875 -3.4375 6.875 -6 8 C-6.66 7.67 -7.32 7.34 -8 7 C-3.53191489 0 -3.53191489 0 0 0 Z " fill="#F1F1F4" transform="translate(21,90)"/>
<path d="M0 0 C2.375 0.6875 2.375 0.6875 5 2 C6.3125 4.625 6.3125 4.625 7 7 C4.6875 6.8125 4.6875 6.8125 2 6 C0.1875 3.4375 0.1875 3.4375 -1 1 C-0.67 0.67 -0.34 0.34 0 0 Z " fill="#02021B" transform="translate(41,98)"/>
<path d="M0 0 C3.09639322 2.53341263 4.13120403 5.12990885 5 9 C4.125 11.375 4.125 11.375 3 13 C2.67 13 2.34 13 2 13 C2 10.03 2 7.06 2 4 C1.34 4 0.68 4 0 4 C0 2.68 0 1.36 0 0 Z " fill="#141326" transform="translate(144,81)"/>
<path d="M0 0 C2.475 0.495 2.475 0.495 5 1 C5.33 2.98 5.66 4.96 6 7 C5.01 7 4.02 7 3 7 C2.01 4.69 1.02 2.38 0 0 Z " fill="#EBEBEE" transform="translate(34,73)"/>
<path d="M0 0 C0.66 1.32 1.32 2.64 2 4 C0.68 4.33 -0.64 4.66 -2 5 C-2 5.66 -2 6.32 -2 7 C-3.32 7.33 -4.64 7.66 -6 8 C-5.38722388 5.03824877 -4.74627478 3.61941217 -3 1 C-2.01 1.99 -1.02 2.98 0 4 C0 2.68 0 1.36 0 0 Z " fill="#DFDEE5" transform="translate(152,96)"/>
<path d="M0 0 C0.99 0.99 1.98 1.98 3 3 C2.67 3.66 2.34 4.32 2 5 C-0.64 5 -3.28 5 -6 5 C-5.195625 4.360625 -4.39125 3.72125 -3.5625 3.0625 C-1.7249496 1.59396498 -1.7249496 1.59396498 0 0 Z " fill="#050512" transform="translate(96,101)"/>
<path d="M0 0 C2.50298434 2.93828597 3.46930939 5.17902761 4 9 C2.68 8.67 1.36 8.34 0 8 C-1.125 2.25 -1.125 2.25 0 0 Z " fill="#1F1F31" transform="translate(46,96)"/>
<path d="M0 0 C2.35953094 2.35953094 2.49141413 3.77895617 3 7 C1.35 7.33 -0.3 7.66 -2 8 C-1.34 5.36 -0.68 2.72 0 0 Z " fill="#F7F8F4" transform="translate(26,88)"/>
<path d="M0 0 C0.66 0 1.32 0 2 0 C1.67 0.66 1.34 1.32 1 2 C0.67 1.34 0.34 0.68 0 0 Z M-3 1 C-0.525 1.99 -0.525 1.99 2 3 C1.67 4.32 1.34 5.64 1 7 C-0.65 5.35 -2.3 3.7 -4 2 C-3.67 1.67 -3.34 1.34 -3 1 Z " fill="#020216" transform="translate(176,95)"/>
<path d="M0 0 C2 2 2 2 2 5 C2.66 5.33 3.32 5.66 4 6 C3.34 6 2.68 6 2 6 C1.67 7.65 1.34 9.3 1 11 C0.34 10.67 -0.32 10.34 -1 10 C-0.67 6.7 -0.34 3.4 0 0 Z " fill="#020115" transform="translate(96,79)"/>
<path d="M0 0 C1.125 1.75 1.125 1.75 2 4 C1.125 6.25 1.125 6.25 0 8 C-0.99 7.34 -1.98 6.68 -3 6 C-2.34 5.67 -1.68 5.34 -1 5 C-1.66 4.01 -2.32 3.02 -3 2 C-2.01 1.34 -1.02 0.68 0 0 Z " fill="#0F1023" transform="translate(132,79)"/>
<path d="M0 0 C2.31 0 4.62 0 7 0 C5.02 0.99 5.02 0.99 3 2 C3 2.99 3 3.98 3 5 C0.525 4.01 0.525 4.01 -2 3 C-1.34 2.67 -0.68 2.34 0 2 C0 1.34 0 0.68 0 0 Z " fill="#020313" transform="translate(133,79)"/>
<path d="M0 0 C2.31 0 4.62 0 7 0 C6.505 0.433125 6.01 0.86625 5.5 1.3125 C3.66781808 2.99740483 3.66781808 2.99740483 4 6 C2.62437146 4.71034824 1.29233607 3.37310707 0 2 C0 1.34 0 0.68 0 0 Z " fill="#161423" transform="translate(89,79)"/>
<path d="M0 0 C0.99 1.485 0.99 1.485 2 3 C4.05003955 4.19232613 4.05003955 4.19232613 6 5 C5.01 6.485 5.01 6.485 4 8 C3.67 7.34 3.34 6.68 3 6 C2.01 6.495 2.01 6.495 1 7 C0.67 4.69 0.34 2.38 0 0 Z " fill="#201D35" transform="translate(141,91)"/>
<path d="M0 0 C2.625 -0.1875 2.625 -0.1875 5 0 C4.01 0.495 4.01 0.495 3 1 C2.34786708 3.02463255 2.34786708 3.02463255 2 5 C0.68 4.34 -0.64 3.68 -2 3 C-1.34 2.01 -0.68 1.02 0 0 Z " fill="#141323" transform="translate(106,79)"/>
<path d="M0 0 C2.5 1.375 2.5 1.375 5 3 C5 3.66 5 4.32 5 5 C3.35 5.33 1.7 5.66 0 6 C0 4.02 0 2.04 0 0 Z " fill="#DEDEE3" transform="translate(128,103)"/>
</svg>
